<svg width="179" height="51" viewBox="0 0 179 51" fill="none" xmlns="http://www.w3.org/2000/svg">
<g clip-path="url(#clip0_14_442)">
<path d="M40.7157 26.975C40.2716 28.6155 40.4424 30.0182 40.4287 31.4037C40.3775 35.884 40.3946 40.3643 40.3638 44.8447C40.3638 46.6265 40.2648 48.4117 40.2443 50.197C40.2443 50.738 40.0529 50.9448 39.5098 50.9414C37.2894 50.9207 35.069 50.9069 32.8417 50.9414C32.0082 50.9586 32.0082 50.4899 32.0116 49.8902C32.039 44.6275 32.0697 39.3614 32.0731 34.0953C32.0868 23.1771 32.0868 12.2577 32.0731 1.33718C32.0731 -0.0413875 32.0731 -0.0241597 33.3883 -0.0241597H46.5332C50.7212 -0.0241597 54.332 1.43712 57.2527 4.45618C60.5116 7.83021 61.7379 11.9521 61.1709 16.5738C60.5082 21.9571 57.5635 25.7378 52.7743 28.0951C52.2174 28.3674 51.9749 28.4811 52.4326 29.1463C54.7009 32.3618 56.9179 35.6152 59.1144 38.8824C59.644 39.7246 60.2283 40.5305 60.8634 41.2949C61.1709 41.6395 61.1299 41.9531 60.556 41.9635L51.5718 42.0841C51.0765 42.0841 50.851 41.705 50.6153 41.3603C48.7342 38.6354 46.8577 35.9081 44.9857 33.1786C43.6227 31.1831 42.2358 29.1773 40.7157 26.975ZM40.5551 14.6541C40.5551 16.4738 40.5824 18.2935 40.5551 20.1098C40.5551 20.8197 40.7498 21.0817 41.4877 21.061C43.1581 21.0093 44.832 21.0369 46.5058 21.061C47.4404 21.0941 48.3702 20.9117 49.2243 20.5277C50.0785 20.1437 50.8347 19.5682 51.4352 18.8449C52.969 17.0494 53.3891 15.0194 52.6239 12.7861C51.8588 10.5529 50.3625 9.08126 48.0704 8.616C45.7782 8.15073 43.4519 8.51605 41.1393 8.42644C40.5517 8.40231 40.5722 8.81244 40.5722 9.21222C40.5608 11.0227 40.5551 12.8367 40.5551 14.6541Z" fill="white"/>
<path d="M1.37808e-05 42.0909L9.36334 28.5569C8.52642 28.1088 7.71 27.7297 6.94823 27.261C4.22225 25.5723 2.12159 23.0269 0.9693 20.0162C-0.182991 17.0056 -0.323115 13.6964 0.570485 10.5976C2.30924 4.463 8.1609 0.0412423 14.5762 0.0343495C19.1161 0.0343495 23.6594 0.0515824 28.2028 0.0136719C28.9714 0.0136719 29.2276 0.151534 29.2276 0.999351C29.1763 14.7126 29.272 28.4259 29.0943 42.1392C29.0602 44.8343 29.0158 47.5294 29.0158 50.2279C29.0158 50.8172 28.8655 51.0033 28.2642 50.9964C25.9789 50.9585 23.6902 50.9482 21.4015 50.9964C20.7182 50.9964 20.6431 50.7483 20.6499 50.1659C20.7296 43.0433 20.7945 35.9276 20.8446 28.8188C20.8446 28.2363 20.8446 27.6539 20.8446 27.006C20.4279 27.1025 20.3254 27.4747 20.1614 27.7332C16.9731 32.3031 13.8019 36.8799 10.6478 41.4637C10.4291 41.7773 10.2754 42.1013 9.78011 42.0978C6.57587 42.0806 3.41604 42.0909 1.37808e-05 42.0909ZM20.8378 14.7057C20.8378 12.8584 20.8378 11.0077 20.8378 9.157C20.8378 8.74688 20.8822 8.40225 20.2707 8.41259C18.245 8.44705 16.2159 8.354 14.1936 8.45394C12.6698 8.5523 11.2349 9.21171 10.1612 10.307C9.08755 11.4023 8.44988 12.8572 8.36929 14.3956C8.27053 15.916 8.7299 17.42 9.65981 18.6207C10.5897 19.8214 11.9251 20.6348 13.4114 20.9058C15.7377 21.2953 18.0982 20.9885 20.4415 21.054C20.9813 21.054 20.8275 20.6405 20.831 20.3647C20.8549 18.4727 20.8378 16.5909 20.8378 14.7057Z" fill="white"/>
<path d="M90.0124 3.00171L95.4063 10.2392C97.2373 12.6965 99.0785 15.1434 100.872 17.6179C101.319 18.2348 101.528 18.0487 101.897 17.5421C103.646 15.1124 105.426 12.6999 107.212 10.3047C108.766 8.21268 110.345 6.14139 111.916 4.0632C112.144 3.70705 112.472 3.42752 112.859 3.26019V25.4103C112.859 26.6992 112.859 26.7027 111.578 26.7096C110.676 26.7096 109.774 26.682 108.872 26.7096C108.254 26.7372 108.029 26.5441 108.039 25.8859C108.076 23.4734 108.063 21.0781 108.039 18.676C108.039 18.383 108.227 17.9316 107.824 17.8247C107.502 17.7351 107.42 18.1694 107.253 18.4037C105.52 20.6852 103.797 22.9748 102.085 25.2724C101.354 26.2546 101.292 26.2615 100.547 25.2724C98.7096 22.7887 96.8695 20.3084 95.0271 17.8316C94.9148 17.7403 94.7921 17.6628 94.6616 17.6007V21.1643C94.6616 22.7565 94.6377 24.3488 94.6616 25.941C94.6616 26.5441 94.4635 26.744 93.8827 26.7268C92.7896 26.6923 91.6931 26.6958 90.5999 26.7268C90.0807 26.7268 89.8416 26.5752 89.845 26.01C89.8587 18.568 89.8666 11.1283 89.8689 3.69099C89.9043 3.45877 89.9522 3.22866 90.0124 3.00171Z" fill="white"/>
<path d="M88.5299 14.7955C88.7827 21.2127 83.1086 26.8579 76.5738 26.727C70.5274 26.6063 64.9012 21.3092 64.9592 14.6404C65.0173 8.55402 70.2439 2.89157 76.8607 2.87089C82.9002 2.85366 88.8544 8.35413 88.5299 14.7955ZM83.8567 14.9092C83.87 13.9676 83.6966 13.0328 83.3468 12.1598C82.9969 11.2868 82.4778 10.493 81.8197 9.82524C81.1616 9.15745 80.3779 8.62905 79.5146 8.27107C78.6512 7.9131 77.7257 7.73277 76.7924 7.74067C74.9419 7.75322 73.1703 8.49856 71.8592 9.81616C70.5481 11.1338 69.8024 12.9182 69.7827 14.7851C69.7831 15.7191 69.967 16.6437 70.3238 17.5054C70.6807 18.3672 71.2033 19.149 71.8615 19.8057C72.5197 20.4624 73.3004 20.9809 74.1585 21.3313C75.0166 21.6816 75.9351 21.8569 76.8607 21.8468C80.6457 21.8503 83.8499 18.6727 83.8567 14.9092Z" fill="white"/>
<path d="M141.465 18.514V21.7536C141.465 23.0529 141.403 24.3557 141.489 25.6481C141.547 26.5476 141.219 26.7785 140.399 26.713C139.579 26.6475 138.79 26.713 137.984 26.713C136.679 26.713 136.658 26.713 136.655 25.3655C136.655 21.4021 136.655 17.4399 136.655 13.4788C136.655 10.2978 136.672 7.11328 136.655 3.93224C136.655 3.18782 136.833 2.89832 137.625 2.919C140.262 2.96725 142.903 2.89486 145.543 2.96379C148.983 3.0534 153.042 6.41021 153.141 10.6079C153.226 14.206 151.808 16.8632 148.7 18.6071C148.129 18.9276 148.044 19.2309 148.437 19.7788C149.834 21.7467 151.2 23.7388 152.577 25.7239C152.755 25.9824 153.11 26.2478 152.963 26.5545C152.816 26.8612 152.382 26.7061 152.078 26.7096C150.79 26.7096 149.503 26.6889 148.215 26.7096C147.945 26.7291 147.676 26.6708 147.438 26.5414C147.2 26.412 147.004 26.2169 146.872 25.9789C145.25 23.5665 143.596 21.1884 141.95 18.7966C141.847 18.676 141.81 18.4933 141.465 18.514ZM141.465 11.1973C141.465 12.1692 141.465 13.141 141.465 14.1129C141.465 14.6058 141.635 14.8022 142.148 14.8022C143.077 14.7781 144.013 14.8195 144.942 14.785C147.368 14.6954 148.297 12.9653 148.416 11.3765C148.546 9.59124 147.122 7.93007 145.253 7.70606C144.164 7.62839 143.072 7.60768 141.98 7.64403C141.519 7.64403 141.475 7.93352 141.475 8.28505L141.465 11.1973Z" fill="white"/>
<path d="M170.583 2.91906H177.828C178.833 2.91906 178.904 3.02245 178.46 3.95298C176.504 8.068 174.541 12.1773 172.571 16.2808C171.819 17.8558 171.085 19.4377 170.313 21.0024C169.992 21.6538 170.146 21.8605 170.853 21.8536C173.203 21.8261 175.553 21.8536 177.9 21.8226C178.693 21.8054 179.031 22.0535 178.966 22.8565C178.891 23.8905 179.038 24.9244 178.88 25.9583C178.802 26.4512 178.634 26.6786 178.084 26.6786C173.159 26.6579 168.234 26.6579 163.31 26.6786C162.528 26.6786 162.504 26.3512 162.767 25.7998C163.833 23.5631 164.916 21.3194 165.978 19.1C167.597 15.6995 169.209 12.2921 170.812 8.8779C171.321 7.78539 171.177 7.60273 169.968 7.60273C167.713 7.60273 165.462 7.5855 163.208 7.60273C162.576 7.60273 162.354 7.40973 162.378 6.7687C162.422 5.76235 162.429 4.75255 162.378 3.74965C162.34 3.06037 162.572 2.85013 163.249 2.86047C165.677 2.93974 168.137 2.91906 170.583 2.91906Z" fill="white"/>
<path d="M125.136 2.96729C126.239 5.03513 127.046 7.06852 127.947 9.06399C129.235 11.9245 130.533 14.7781 131.811 17.6456C133.048 20.4027 134.257 23.2012 135.49 25.9755C135.705 26.4615 135.644 26.7062 135.063 26.7027C133.772 26.7027 132.484 26.6855 131.196 26.7027C130.786 26.7027 130.632 26.4649 130.489 26.1651C130.1 25.3448 129.693 24.5349 129.324 23.7112C129.26 23.5293 129.137 23.3748 128.974 23.2733C128.811 23.1717 128.619 23.1293 128.429 23.1529C126.275 23.169 124.117 23.169 121.956 23.1529C121.749 23.1268 121.539 23.1722 121.361 23.2818C121.183 23.3913 121.047 23.5585 120.975 23.756C120.634 24.5556 120.166 25.3138 119.892 26.1375C119.875 26.2299 119.84 26.3179 119.789 26.3965C119.738 26.475 119.672 26.5425 119.594 26.5951C119.517 26.6477 119.43 26.6843 119.339 26.7028C119.248 26.7212 119.154 26.7212 119.062 26.7027C117.87 26.7027 116.671 26.6717 115.486 26.7027C114.642 26.7303 114.666 26.334 114.932 25.7481C116.23 22.8669 117.527 19.9845 118.823 17.101C120.152 14.1543 121.556 11.2421 122.779 8.24719C123.5 6.49986 124.344 4.82145 125.136 2.96729ZM125.177 18.3314C127.104 18.3314 127.111 18.3142 126.202 16.5461C125.884 15.9292 125.802 14.7988 125.232 14.7988C124.518 14.7988 124.467 15.9155 124.142 16.5496C123.23 18.3348 123.25 18.3486 125.177 18.3314Z" fill="white"/>
<path d="M160.034 14.7886C160.034 18.4246 160.017 22.0605 160.034 25.6999C160.034 26.4168 159.915 26.7683 159.098 26.7166C158.074 26.6637 157.048 26.6637 156.024 26.7166C155.45 26.7166 155.214 26.5374 155.224 25.9377C155.248 24.5592 155.224 23.2082 155.224 21.8434C155.224 15.9018 155.241 9.96019 155.207 4.01858C155.207 3.18799 155.385 2.833 156.27 2.90193C157.201 2.9622 158.136 2.9622 159.067 2.90193C159.792 2.86747 160.072 3.05703 160.058 3.86693C160.007 7.51324 160.031 11.1492 160.034 14.7886Z" fill="white"/>
<path d="M66.9542 31.5244H73.5403C75.3349 31.5244 76.6113 32.0609 77.3697 33.1339C77.8225 33.7753 78.0617 34.5453 78.0529 35.3327C78.0884 36.2037 77.7955 37.0559 77.2331 37.7176C76.8858 38.0932 76.4708 38.3985 76.0101 38.6171C76.6491 38.8386 77.2395 39.1826 77.7489 39.6304C78.1004 39.9963 78.373 40.4317 78.5494 40.9092C78.7258 41.3867 78.8021 41.8959 78.7737 42.4047C78.779 43.3818 78.4509 44.331 77.8445 45.0929C76.9222 46.2923 75.4522 46.892 73.4344 46.892H66.944L66.9542 31.5244ZM72.7615 38.0209C73.463 38.0533 74.163 37.9286 74.8111 37.6556C75.5808 37.2696 75.9657 36.5803 75.9657 35.5877C75.9657 34.5952 75.5569 33.9185 74.7394 33.5578C74.0804 33.3312 73.3851 33.2318 72.6897 33.2648H68.9697V38.0243L72.7615 38.0209ZM73.4447 45.1136C74.7223 45.1136 75.6344 44.7414 76.1775 44.0039C76.5275 43.5104 76.7075 42.9148 76.6899 42.3082C76.7222 41.8156 76.5933 41.3259 76.323 40.9143C76.0527 40.5028 75.656 40.1921 75.1937 40.0302C74.52 39.7826 73.8061 39.6656 73.0894 39.6855H68.956V45.0964L73.4447 45.1136Z" fill="white"/>
<path d="M81.6431 31.5244H83.7269V46.892H81.6431V31.5244Z" fill="white"/>
<path d="M87.0678 31.5244H89.0798V39.0445L96.701 31.5244H99.5841L93.0937 37.728L99.7379 46.8954H97.0153L91.5496 39.172L89.0662 41.5397V46.8954H87.0541L87.0678 31.5244Z" fill="white"/>
<path d="M101.429 31.5244H112.483V33.4062H103.441V38.0726H111.796V39.8509H103.441V45.0619H112.637V46.892H101.429V31.5244Z" fill="white"/>
<path d="M117.607 42.1324C117.654 42.7029 117.856 43.2492 118.191 43.7109C118.722 44.345 119.633 44.6621 120.924 44.6621C121.559 44.6818 122.192 44.5968 122.799 44.4105C123.708 44.09 124.166 43.4937 124.166 42.6218C124.17 42.3807 124.108 42.1431 123.987 41.9347C123.867 41.7264 123.693 41.5552 123.483 41.4397C122.816 41.0913 122.101 40.8483 121.361 40.7194L119.705 40.3541C118.079 39.9888 116.961 39.5947 116.353 39.172C115.329 38.4585 114.809 37.3488 114.809 35.8324C114.794 35.1813 114.922 34.5348 115.183 33.9391C115.444 33.3434 115.832 32.8131 116.319 32.386C117.326 31.4669 118.806 31.0074 120.76 31.0074C122.253 30.9646 123.719 31.4188 124.931 32.2998C126.081 33.1614 126.685 34.4113 126.742 36.0495H123.667C123.665 35.6369 123.549 35.2331 123.331 34.8841C123.113 34.535 122.802 34.2546 122.434 34.0747C121.838 33.7972 121.187 33.6638 120.531 33.6853C119.824 33.65 119.122 33.825 118.512 34.1884C118.275 34.334 118.08 34.5405 117.947 34.7869C117.815 35.0334 117.749 35.3109 117.757 35.5911C117.749 35.8476 117.815 36.1011 117.947 36.3203C118.079 36.5395 118.272 36.7149 118.502 36.8249C119.152 37.1144 119.833 37.3284 120.531 37.4625L123.213 38.1001C124.163 38.2806 125.064 38.6623 125.857 39.2202C126.768 39.9439 127.223 40.9928 127.223 42.3668C127.235 43.0377 127.095 43.7024 126.814 44.3108C126.534 44.9192 126.12 45.4553 125.604 45.8787C124.525 46.8092 123 47.2745 121.03 47.2745C119.019 47.2745 117.436 46.8149 116.282 45.8959C115.715 45.4486 115.263 44.8712 114.962 44.2118C114.661 43.5523 114.521 42.83 114.553 42.1048L117.607 42.1324Z" fill="white"/>
<path d="M128.07 37.7176V35.5946H129.645V32.4136H132.569V35.5946H134.404V37.7176H132.569V43.7419C132.528 44.0456 132.591 44.3543 132.747 44.6173C132.863 44.7311 133.222 44.7896 133.823 44.7896H134.11H134.404V47.016L133.007 47.0677C131.609 47.116 130.656 46.8747 130.144 46.3371C129.778 45.8965 129.599 45.3281 129.645 44.7552V37.7176H128.07Z" fill="white"/>
<path d="M139.248 35.4946V42.3668C139.222 42.8655 139.299 43.3641 139.473 43.8315C139.742 44.4105 140.268 44.7 141.051 44.7C142.056 44.7 142.759 44.2899 143.101 43.4662C143.316 42.9029 143.415 42.3013 143.391 41.6982V35.4946H146.387V46.8988H143.514V45.2859C143.487 45.3204 143.419 45.4272 143.309 45.5995C143.201 45.7717 143.069 45.9272 142.916 46.0613C142.529 46.4315 142.074 46.7229 141.577 46.9195C141.089 47.0813 140.578 47.1593 140.064 47.1504C138.395 47.1504 137.271 46.5427 136.692 45.3272C136.367 44.6586 136.205 43.6718 136.207 42.3668V35.4946H139.248Z" fill="white"/>
<path d="M155.265 35.6705C155.798 35.9725 156.244 36.4067 156.563 36.9318V31.4934H159.559V46.892H156.686V45.3101C156.337 45.9164 155.841 46.4237 155.245 46.7851C154.625 47.1118 153.932 47.271 153.233 47.247C152.592 47.2523 151.959 47.1093 151.381 46.8291C150.804 46.5489 150.298 46.1389 149.902 45.6306C148.991 44.5507 148.536 43.1721 148.536 41.4949C148.536 39.5511 148.981 38.0209 149.871 36.9043C150.292 36.3617 150.833 35.9271 151.452 35.636C152.071 35.3449 152.749 35.2055 153.431 35.2293C154.07 35.2111 154.703 35.3633 155.265 35.6705ZM155.993 43.7936C156.455 43.0689 156.683 42.2177 156.645 41.357C156.645 39.9601 156.296 38.9629 155.597 38.3655C155.181 38.0075 154.651 37.814 154.104 37.821C153.728 37.7965 153.352 37.8755 153.017 38.0498C152.682 38.224 152.4 38.4868 152.201 38.8101C151.776 39.5548 151.566 40.405 151.597 41.264C151.554 42.1485 151.767 43.0264 152.211 43.7902C152.413 44.0999 152.693 44.3504 153.022 44.5162C153.35 44.682 153.717 44.7573 154.083 44.7345C154.455 44.7545 154.825 44.6785 155.159 44.5139C155.493 44.3493 155.78 44.1014 155.993 43.7936Z" fill="white"/>
<path d="M165.281 34.116H162.285V31.3589H165.281V34.116ZM162.285 35.4739H165.281V46.8781H162.285V35.4739Z" fill="white"/>
<path d="M177.569 45.4892C176.614 46.6793 175.166 47.2733 173.223 47.271C171.281 47.2687 169.834 46.6747 168.882 45.4892C167.917 44.2743 167.41 42.7543 167.45 41.1984C167.417 39.6488 167.924 38.1365 168.882 36.9248C169.836 35.7186 171.283 35.1155 173.223 35.1155C175.164 35.1155 176.612 35.7186 177.569 36.9248C178.525 38.1373 179.032 39.649 179 41.1984C179.038 42.754 178.532 44.2735 177.569 45.4892ZM175.205 43.8418C175.669 43.2214 175.888 42.3392 175.888 41.1984C175.888 40.0576 175.659 39.1788 175.205 38.5619C174.973 38.2558 174.67 38.0117 174.323 37.8507C173.976 37.6897 173.595 37.6168 173.213 37.6383C172.831 37.6177 172.45 37.691 172.103 37.8519C171.755 38.0128 171.452 38.2564 171.218 38.5619C170.749 39.1776 170.516 40.0565 170.518 41.1984C170.52 42.3403 170.754 43.2214 171.218 43.8418C171.451 44.1487 171.754 44.3939 172.102 44.556C172.449 44.7182 172.831 44.7924 173.213 44.7723C173.595 44.7941 173.976 44.7213 174.323 44.5603C174.67 44.3993 174.973 44.155 175.205 43.8487V43.8418Z" fill="white"/>
</g>
<defs>
<clipPath id="clip0_14_442">
<rect width="179" height="51" fill="white"/>
</clipPath>
</defs>
</svg>
