<?xml version="1.0" encoding="UTF-8" standalone="no"?>
<svg
   xmlns:dc="http://purl.org/dc/elements/1.1/"
   xmlns:cc="http://creativecommons.org/ns#"
   xmlns:rdf="http://www.w3.org/1999/02/22-rdf-syntax-ns#"
   xmlns:svg="http://www.w3.org/2000/svg"
   xmlns="http://www.w3.org/2000/svg"
   xmlns:sodipodi="http://sodipodi.sourceforge.net/DTD/sodipodi-0.dtd"
   xmlns:inkscape="http://www.inkscape.org/namespaces/inkscape"
   width="179"
   height="51"
   viewBox="0 0 179 51"
   fill="none"
   version="1.1"
   id="svg53"
   sodipodi:docname="logo-romariz-p.svg"
   inkscape:version="1.0.1 (c497b03c, 2020-09-10)">
  <metadata
     id="metadata57">
    <rdf:RDF>
      <cc:Work
         rdf:about="">
        <dc:format>image/svg+xml</dc:format>
        <dc:type
           rdf:resource="http://purl.org/dc/dcmitype/StillImage" />
      </cc:Work>
    </rdf:RDF>
  </metadata>
  <sodipodi:namedview
     pagecolor="#ffffff"
     bordercolor="#666666"
     borderopacity="1"
     objecttolerance="10"
     gridtolerance="10"
     guidetolerance="10"
     inkscape:pageopacity="0"
     inkscape:pageshadow="2"
     inkscape:window-width="1920"
     inkscape:window-height="1034"
     id="namedview55"
     showgrid="false"
     inkscape:zoom="4.7039106"
     inkscape:cx="89.5"
     inkscape:cy="25.5"
     inkscape:window-x="0"
     inkscape:window-y="23"
     inkscape:window-maximized="0"
     inkscape:current-layer="svg53" />
  <path
     d="m 40.7157,26.975 c -0.4441,1.6405 -0.2733,3.0432 -0.287,4.4287 -0.0512,4.4803 -0.0341,8.9606 -0.0649,13.441 0,1.7818 -0.099,3.567 -0.1195,5.3523 0,0.541 -0.1914,0.7478 -0.7345,0.7444 -2.2204,-0.0207 -4.4408,-0.0345 -6.6681,0 -0.8335,0.0172 -0.8335,-0.4515 -0.8301,-1.0512 0.0274,-5.2627 0.0581,-10.5288 0.0615,-15.7949 0.0137,-10.9182 0.0137,-21.8376 0,-32.75812 0,-1.3785675 0,-1.3613397 1.3152,-1.3613397 h 13.1449 c 4.188,0 7.7988,1.4612797 10.7195,4.4803397 3.2589,3.37403 4.4852,7.49592 3.9182,12.11762 -0.6627,5.3833 -3.6074,9.164 -8.3966,11.5213 -0.5569,0.2723 -0.7994,0.386 -0.3417,1.0512 2.2683,3.2155 4.4853,6.4689 6.6818,9.7361 0.5296,0.8422 1.1139,1.6481 1.749,2.4125 0.3075,0.3446 0.2665,0.6582 -0.3074,0.6686 l -8.9842,0.1206 c -0.4953,0 -0.7208,-0.3791 -0.9565,-0.7238 -1.8811,-2.7249 -3.7576,-5.4522 -5.6296,-8.1817 -1.363,-1.9955 -2.7499,-4.0013 -4.27,-6.2036 z M 40.5551,14.6541 c 0,1.8197 0.0273,3.6394 0,5.4557 0,0.7099 0.1947,0.9719 0.9326,0.9512 1.6704,-0.0517 3.3443,-0.0241 5.0181,0 0.9346,0.0331 1.8644,-0.1493 2.7185,-0.5333 0.8542,-0.384 1.6104,-0.9595 2.2109,-1.6828 1.5338,-1.7955 1.9539,-3.8255 1.1887,-6.0588 C 51.8588,10.5529 50.3625,9.08126 48.0704,8.616 45.7782,8.15073 43.4519,8.51605 41.1393,8.42644 40.5517,8.40231 40.5722,8.81244 40.5722,9.21222 40.5608,11.0227 40.5551,12.8367 40.5551,14.6541 Z"
     fill="white"
     id="path10"
     style="fill:#ffffff" />
  <path
     d="M 1.37808e-5,42.0909 9.36334,28.5569 C 8.52642,28.1088 7.71,27.7297 6.94823,27.261 4.22225,25.5723 2.12159,23.0269 0.9693,20.0162 -0.182991,17.0056 -0.323115,13.6964 0.570485,10.5976 2.30924,4.463 8.1609,0.0412423 14.5762,0.0343495 c 4.5399,0 9.0832,0.0172329 13.6266,-0.0206776 0.7686,0 1.0248,0.1378621 1.0248,0.9856791 C 29.1763,14.7126 29.272,28.4259 29.0943,42.1392 c -0.0341,2.6951 -0.0785,5.3902 -0.0785,8.0887 0,0.5893 -0.1503,0.7754 -0.7516,0.7685 -2.2853,-0.0379 -4.574,-0.0482 -6.8627,0 -0.6833,0 -0.7584,-0.2481 -0.7516,-0.8305 0.0797,-7.1226 0.1446,-14.2383 0.1947,-21.3471 0,-0.5825 0,-1.1649 0,-1.8128 -0.4167,0.0965 -0.5192,0.4687 -0.6832,0.7272 -3.1883,4.5699 -6.3595,9.1467 -9.5136,13.7305 -0.2187,0.3136 -0.3724,0.6376 -0.86769,0.6341 C 6.57587,42.0806 3.41604,42.0909 1.37808e-5,42.0909 Z M 20.8378,14.7057 c 0,-1.8473 0,-3.698 0,-5.5487 0,-0.41012 0.0444,-0.75475 -0.5671,-0.74441 C 18.245,8.44705 16.2159,8.354 14.1936,8.45394 12.6698,8.5523 11.2349,9.21171 10.1612,10.307 9.08755,11.4023 8.44988,12.8572 8.36929,14.3956 8.27053,15.916 8.7299,17.42 9.65981,18.6207 c 0.92989,1.2007 2.26529,2.0141 3.75159,2.2851 2.3263,0.3895 4.6868,0.0827 7.0301,0.1482 0.5398,0 0.386,-0.4135 0.3895,-0.6893 0.0239,-1.892 0.0068,-3.7738 0.0068,-5.659 z"
     fill="white"
     id="path12"
     style="fill:#ffffff" />
  <defs
     id="defs51">
    <clipPath
       id="clip0_14_442">
      <rect
         width="179"
         height="51"
         fill="white"
         id="rect48" />
    </clipPath>
  </defs>
</svg>
